<svg id="Capa_1" enable-background="new 0 0 512.002 512.002" height="512" viewBox="0 0 512.002 512.002" width="512" xmlns="http://www.w3.org/2000/svg"><g><path d="m230.367 173.167v-8.283c0-4.143-3.357-7.5-7.5-7.5s-7.5 3.357-7.5 7.5v8.283c0 4.143 3.357 7.5 7.5 7.5s7.5-3.357 7.5-7.5z"/><path d="m296.635 173.167v-8.283c0-4.143-3.357-7.5-7.5-7.5s-7.5 3.357-7.5 7.5v8.283c0 4.143 3.357 7.5 7.5 7.5s7.5-3.357 7.5-7.5z"/><path d="m432.138 358.16-97.707-26.055-29.512-29.512v-20.384c22.923-14.823 38.734-39.739 41.102-68.409h17.664c3.207 0 6.266-.635 9.066-1.779v60.545c0 2.898-1.371 5.476-3.493 7.137-3.676-8.597-12.216-14.637-22.141-14.637-13.27 0-24.066 10.797-24.066 24.067 0 13.271 10.796 24.066 24.066 24.066 10.99 0 20.276-7.406 23.146-17.488 10.081-2.87 17.488-12.156 17.488-23.146v-82.833-49.7c0-10.652-6.958-19.704-16.566-22.864v-43.401c0-40.675-33.092-73.767-73.767-73.767h-82.834c-40.675 0-73.767 33.092-73.767 73.767v43.403c-9.608 3.16-16.566 12.211-16.566 22.864v49.7c0 13.271 10.796 24.066 24.066 24.066h17.667c.669 8.148 2.42 16.123 5.251 23.79 1.119 3.029 3.986 4.904 7.037 4.904.862 0 1.74-.15 2.597-.466 3.886-1.436 5.873-5.748 4.438-9.634-3.079-8.337-4.64-17.117-4.64-26.095v-75.333h17.35c8.703 0 15.783-7.08 15.783-15.783 0-.432.352-.783.783-.783h82.834c.432 0 .783.352.783.783 0 8.703 7.08 15.783 15.783 15.783h17.35v75.334c0 41.539-33.794 75.334-75.333 75.334-21.422 0-41.902-9.168-56.19-25.153-2.759-3.087-7.501-3.355-10.59-.594-3.088 2.76-3.354 7.501-.594 10.59 5.464 6.113 11.686 11.39 18.456 15.748v20.368l-29.512 29.512-97.706 26.055c-17.76 4.736-30.163 20.882-30.163 39.262v98.795c0 8.703 7.08 15.783 15.783 15.783h91.092c.009 0 .017.002.026.002.014 0 .028-.002.042-.002h74.507 49.699 74.507c.014 0 .028.002.042.002.009 0 .017-.002.026-.002h42.325c4.143 0 7.5-3.357 7.5-7.5s-3.357-7.5-7.5-7.5h-31.272l29.019-72.548c1.448-3.621-.121-7.749-3.609-9.493l-19.717-9.859 19.717-9.858c1.875-.938 3.272-2.617 3.853-4.633.58-2.015.291-4.181-.799-5.972l-15.148-24.91 48.478 12.927c11.203 2.987 19.028 13.173 19.028 24.768v98.795c0 .432-.352.783-.783.783h-18.767c-4.143 0-7.5 3.357-7.5 7.5s3.357 7.5 7.5 7.5h18.768c8.703 0 15.783-7.08 15.783-15.783v-98.795c0-18.38-12.404-34.525-30.163-39.262zm-85.021-59.96c-4.999 0-9.066-4.067-9.066-9.066 0-5 4.067-9.067 9.066-9.067 5 0 9.067 4.067 9.067 9.067.001 4.999-4.067 9.066-9.067 9.066zm25.634-108.467c0 4.999-4.067 9.066-9.066 9.066h-17.351v-67.833h17.351c4.999 0 9.066 4.067 9.066 9.066zm-158.167-174.733h82.834c32.404 0 58.767 26.362 58.767 58.767v42.2h-9.851v-42.2c0-22.405-18.228-40.633-40.633-40.633h-99.4c-22.405 0-40.633 18.228-40.633 40.633v42.2h-9.851v-42.2c0-32.405 26.363-58.767 58.767-58.767zm-75.333 174.733v-49.7c0-4.999 4.067-9.066 9.066-9.066h17.351v67.833h-17.351c-4.999 0-9.066-4.068-9.066-9.067zm173.95-74.549c0-8.703-7.08-15.783-15.783-15.783h-82.834c-8.703 0-15.783 7.08-15.783 15.783 0 .432-.352.783-.783.783h-17.35v-42.2c0-14.134 11.499-25.633 25.633-25.633h99.4c14.134 0 25.633 11.499 25.633 25.633v42.2h-17.35c-.431 0-.783-.352-.783-.783zm-25.45 381.816-7.622-91.466 5.87-29.348c1.231.301 2.488.47 3.751.47 3.473 0 6.958-1.145 9.859-3.465l23.441-18.753v142.562zm-98.8 0v-142.562l23.441 18.753c2.901 2.321 6.387 3.465 9.859 3.465 1.263 0 2.521-.169 3.751-.471l5.87 29.348-7.621 91.467zm-27.273 0-28.684-71.711 26.961-13.482c2.541-1.27 4.146-3.867 4.146-6.708s-1.605-5.438-4.146-6.708l-25.846-12.923 19.051-31.329 20.791-5.544v148.405zm77.615-130.852 8.784-8.784 7.924-7.924 16.708 16.709-6.29 31.451h-20.836zm50.945-4.67c-.312.249-.763.224-1.043-.057l-21.966-21.967 29.632-23.705 22.461 22.461zm-34.237-64.844c11.99 0 23.439-2.354 33.917-6.615v12.076l-33.917 27.133-33.917-27.133v-12.091c10.669 4.326 22.174 6.63 33.917 6.63zm-40.86 19.116 29.632 23.705-21.966 21.966c-.281.282-.732.308-1.043.058l-29.084-23.268zm-150.44 180.467v-98.795c0-11.595 7.825-21.78 19.028-24.768l48.478-12.927-15.148 24.91c-1.09 1.791-1.379 3.957-.799 5.972.58 2.016 1.977 3.695 3.852 4.633l19.717 9.858-19.717 9.859c-3.488 1.744-5.058 5.872-3.609 9.493l29.02 72.548h-80.039c-.431 0-.783-.352-.783-.783zm174.602.783 7.033-84.4h19.33l7.033 84.4zm138.59-111.531-25.846 12.923c-2.54 1.271-4.146 3.867-4.146 6.708s1.604 5.438 4.146 6.708l26.961 13.482-28.685 71.71h-12.273v-148.405l20.791 5.544z"/><path d="m272.567 238.65c4.143 0 7.5-3.357 7.5-7.5s-3.357-7.5-7.5-7.5h-33.133c-4.143 0-7.5 3.357-7.5 7.5s3.357 7.5 7.5 7.5z"/></g></svg>